<svg width="249" height="32" viewBox="0 0 249 32" fill="none" xmlns="http://www.w3.org/2000/svg">
<path fill-rule="evenodd" clip-rule="evenodd" d="M15.3891 18.1504C15.3891 22.3027 12.2531 24.9292 7.06461 24.9292C4.53994 24.9292 2.1246 24.2906 1.08094 23.652C0.755414 23.4383 0.467164 23.0854 0.432375 22.658C0.28825 20.8117 0 19.0027 0 18.5753C0 18.1504 0.28825 17.8671 0.86475 17.8671C1.40398 17.8671 1.58537 18.1156 1.65744 18.5057C1.87362 19.6761 2.19915 20.7422 2.81044 21.6293C3.459 22.5164 5.11644 23.3314 7.24352 23.3314C10.5236 23.3314 12.5414 21.6989 12.5414 19.1791C12.5414 17.3329 11.2815 15.9488 9.08236 14.8132L5.69294 13.0041C2.4874 11.2995 1.00887 9.52526 1.00887 6.71979C1.00887 2.92285 4.32375 0.544785 8.8289 0.544785C11.0628 0.544785 12.5066 0.900127 13.5502 1.18341C14.2709 1.39711 14.7405 1.74997 14.7753 2.24943C14.8474 3.20613 15.1008 5.90474 15.1008 6.11844C15.1008 6.57815 14.7753 6.79186 14.3802 6.79186C13.8037 6.79186 13.5502 6.50858 13.5154 6.15323C13.4061 5.30091 13.011 4.02366 12.5066 3.34777C11.858 2.5675 10.7398 2.10531 8.79411 2.10531C5.40469 2.10531 3.71246 3.66832 3.71246 5.86995C3.71246 7.46527 4.64927 8.745 7.13667 10.057L10.3795 11.8313C13.6944 13.608 15.3891 15.1685 15.3891 18.1504Z" fill="#1054CC"/>
<path fill-rule="evenodd" clip-rule="evenodd" d="M27.7889 22.7301C28.0398 23.0134 28.4722 23.155 29.1928 23.155C29.3022 23.155 29.8414 23.1202 30.0228 23.1202C30.2738 23.1202 30.49 23.3314 30.49 23.7936C30.49 24.2558 30.2738 24.5043 29.9855 24.5043C29.337 24.5043 27.7168 24.3279 25.9848 24.3279C24.2553 24.3279 22.6699 24.5043 22.2748 24.5043C21.912 24.5043 21.6611 24.2906 21.6611 23.7936C21.6611 23.3687 21.8773 23.1202 22.2003 23.1202C22.3469 23.1202 22.8141 23.155 22.9582 23.155C23.644 23.155 24.1485 22.9065 24.3647 22.5512C24.5436 22.2679 24.725 21.6641 24.725 20.1383V9.38361C24.725 8.84936 24.6877 8.45923 24.5088 8.35238C24.1833 8.14116 23.4278 8.14116 22.3096 8.14116C20.8311 8.14116 20.3267 8.24801 19.8222 8.70772C19.3178 9.09785 19.1016 9.98496 18.9948 10.8025C18.9575 11.051 18.7761 11.2647 18.381 11.2647C17.9834 11.2647 17.7324 11.0858 17.7324 10.8373C17.7324 10.3776 17.9834 8.31759 17.9834 7.21677C17.9834 6.8987 18.1648 6.71979 18.4183 6.71979C18.9948 6.71979 19.4992 6.86143 26.0942 6.86143C32.8332 6.86143 33.2656 6.75458 33.8421 6.75458C34.1304 6.75458 34.3838 6.86143 34.3838 7.25404C34.3838 8.21074 34.4907 10.6261 34.4907 10.7677C34.4907 11.1231 34.2397 11.2995 33.8794 11.2995C33.4097 11.2995 33.2308 11.0858 33.2308 10.8373C33.0867 9.80854 32.9053 9.16991 32.545 8.74499C32.1474 8.24801 31.3547 8.14116 29.9507 8.14116C28.4722 8.14116 27.8609 8.14116 27.6075 8.2828C27.3913 8.42444 27.3565 8.70772 27.3565 9.38361V20.1383C27.3565 21.7709 27.5354 22.4095 27.7889 22.7301Z" fill="#1054CC"/>
<path fill-rule="evenodd" clip-rule="evenodd" d="M38.2768 22.444C38.2768 22.941 38.6719 23.1199 39.8622 23.1199C40.0784 23.1199 40.5108 23.0826 40.6549 23.0826C41.0152 23.0826 41.1593 23.3336 41.1593 23.7237C41.1593 24.0791 41.1245 24.504 40.6549 24.504C40.3666 24.504 38.1327 24.3624 36.9772 24.3624C35.8242 24.3624 34.7085 24.504 34.383 24.504C33.9506 24.504 33.8438 24.1487 33.8438 23.8306C33.8438 23.4032 33.9879 23.0826 34.3109 23.0826C34.455 23.0826 34.6364 23.1199 34.8526 23.1199C35.1409 23.1199 35.7174 23.0131 36.0056 22.5857C36.2566 22.1955 36.6542 21.5917 37.1959 20.3517C39.0695 16.0901 41.2314 11.2644 42.3844 8.77948C42.4937 8.4962 42.6726 7.89236 42.7099 7.53702C42.7447 7.25374 42.854 7.07483 43.105 6.96798C43.5747 6.71948 44.4394 6.47099 44.7277 6.47099C44.9066 6.47099 45.0507 6.57784 45.1228 6.82634C45.2321 7.07483 45.339 7.46496 45.7365 8.38935C46.3503 9.94987 47.5754 12.9318 50.6741 20.3517C51.2506 21.7706 51.5388 22.2676 51.8271 22.6229C52.0805 22.941 52.5477 23.1199 53.0173 23.1199C53.1615 23.1199 53.3056 23.0826 53.4497 23.0826C53.738 23.0826 53.9541 23.3684 53.9541 23.7933C53.9541 24.2555 53.7728 24.504 53.487 24.504C53.1615 24.504 51.3947 24.3624 50.2069 24.3624C49.0514 24.3624 46.2783 24.504 46.0248 24.504C45.7018 24.504 45.5204 24.1487 45.5204 23.7933C45.5204 23.438 45.6272 23.0826 45.99 23.0826C46.0969 23.0826 46.4572 23.1199 46.5665 23.1199C47.8636 23.1199 48.4029 22.8714 48.4029 22.3396C48.4029 21.9122 48.2587 21.4873 47.8264 20.3517L47.1057 18.6123C46.8548 17.9364 46.6734 17.76 46.0969 17.76H40.6201C40.1132 17.76 39.897 18.0084 39.7181 18.4706L38.9602 20.3144C38.493 21.45 38.2768 22.0539 38.2768 22.444ZM40.727 16.0901C40.727 16.4106 40.9431 16.4454 41.701 16.4454H45.2669C45.8807 16.4454 46.0969 16.3759 46.0969 16.0901C46.0969 15.9485 45.99 15.7 45.9179 15.4887L43.7188 10.2704C43.6467 10.0567 43.5747 9.98466 43.4653 9.98466C43.3933 9.98466 43.3212 10.0915 43.2144 10.34L40.9431 15.4515C40.8711 15.6652 40.727 15.9857 40.727 16.0901Z" fill="#1054CC"/>
<path fill-rule="evenodd" clip-rule="evenodd" d="M61.5617 23.1542C61.6685 23.1542 62.0288 23.1194 62.2102 23.1194C62.5706 23.1194 62.7147 23.4027 62.7147 23.8301C62.7147 24.1829 62.5333 24.5035 62.2102 24.5035C61.8847 24.5035 60.5503 24.3271 58.8208 24.3271C57.0913 24.3271 55.6501 24.5035 55.3618 24.5035C55.0015 24.5035 54.8574 24.1829 54.8574 23.7928C54.8574 23.4747 55.0015 23.1194 55.3618 23.1194C55.4687 23.1194 55.7594 23.1542 55.9035 23.1542C56.6589 23.1542 57.1634 22.9405 57.3796 22.6224C57.561 22.3019 57.7051 21.8769 57.7399 20.4208C57.8492 14.954 57.8492 12.1162 57.8492 10.9433C57.8492 9.63129 57.7399 8.95539 57.4516 8.60253C57.0193 8.10555 56.5496 8.06827 55.9383 8.06827C55.7942 8.06827 55.3618 8.10555 55.255 8.10555C54.8922 8.10555 54.748 7.81978 54.748 7.42965C54.748 6.93267 55.0015 6.75624 55.3618 6.75624C55.6501 6.75624 56.9124 6.89788 57.633 6.89788C58.4978 6.89788 59.4694 6.79103 59.8297 6.79103C60.19 6.79103 60.4087 6.96746 60.5876 7.21595C62.1009 9.1343 63.075 10.2699 65.2021 12.7175C67.1105 14.8844 68.7704 16.6934 71.0391 19.1783C71.1485 19.32 71.2553 19.4268 71.3647 19.4268C71.4715 19.4268 71.5088 19.32 71.5088 19.2131C71.5436 17.9359 71.5436 16.8723 71.5436 15.6994C71.5436 13.9973 71.4715 12.8592 71.3995 11.085C71.3274 9.63129 71.2205 8.9206 71.0764 8.63732C70.8602 8.28198 70.3558 8.06827 69.7047 8.06827C69.5258 8.06827 69.0214 8.10555 68.912 8.10555C68.5517 8.10555 68.3356 7.81978 68.3356 7.46444C68.3356 7.07431 68.4797 6.75624 68.9493 6.75624C69.1655 6.75624 70.6788 6.89788 72.4804 6.89788C73.9962 6.89788 75.1119 6.75624 75.3654 6.75624C75.8325 6.75624 75.9767 7.00473 75.9767 7.42965C75.9767 7.81978 75.7977 8.10555 75.4722 8.10555C75.2933 8.10555 74.9305 8.06827 74.7516 8.06827C73.9962 8.06827 73.7427 8.24719 73.5265 8.53047C73.2731 8.81375 73.1314 9.59401 73.0942 11.085C73.0569 12.0789 73.0569 13.9252 73.0569 16.1268C73.0569 21.8769 73.2383 23.8301 73.2383 24.1829C73.2383 24.5731 73.0221 24.8936 72.5177 24.8936C72.048 24.8936 71.8318 24.7172 71.725 24.5383C71.0043 23.6512 70.3558 22.7641 69.7047 22.0186C66.3551 18.1844 63.075 14.4222 59.939 10.8737C59.8297 10.7669 59.7576 10.6948 59.5787 10.6948C59.4694 10.6948 59.4346 10.7669 59.4346 10.9433C59.4346 12.5759 59.3998 13.8184 59.3998 15.451C59.3998 17.1208 59.3998 18.6813 59.4346 20.4208C59.4694 21.9117 59.6881 22.4087 59.939 22.692C60.1552 22.9778 60.6249 23.1542 61.5617 23.1542Z" fill="#1054CC"/>
<path fill-rule="evenodd" clip-rule="evenodd" d="M87.5833 22.7301C87.8367 23.0134 88.2691 23.155 88.9897 23.155C89.0966 23.155 89.6383 23.1202 89.8172 23.1202C90.0706 23.1202 90.2868 23.3314 90.2868 23.7936C90.2868 24.2558 90.0706 24.5043 89.7824 24.5043C89.1338 24.5043 87.5112 24.3279 85.7817 24.3279C84.0522 24.3279 82.4668 24.5043 82.0692 24.5043C81.7089 24.5043 81.4555 24.2906 81.4555 23.7936C81.4555 23.3687 81.6741 23.1202 81.9972 23.1202C82.1413 23.1202 82.6109 23.155 82.7551 23.155C83.4384 23.155 83.9429 22.9065 84.159 22.5512C84.3404 22.2679 84.5194 21.6641 84.5194 20.1383V9.38361C84.5194 8.84936 84.4846 8.45923 84.3032 8.35238C83.9801 8.14116 83.2222 8.14116 82.1065 8.14116C80.628 8.14116 80.1235 8.24801 79.6191 8.70772C79.1147 9.09785 78.8985 9.98496 78.7891 10.8025C78.7544 11.051 78.573 11.2647 78.1779 11.2647C77.7803 11.2647 77.5293 11.0858 77.5293 10.8373C77.5293 10.3776 77.7803 8.31759 77.7803 7.21677C77.7803 6.8987 77.9617 6.71979 78.2126 6.71979C78.7891 6.71979 79.2936 6.86143 85.8885 6.86143C92.6301 6.86143 93.0625 6.75458 93.639 6.75458C93.9272 6.75458 94.1782 6.86143 94.1782 7.25404C94.1782 8.21074 94.2875 10.6261 94.2875 10.7677C94.2875 11.1231 94.0341 11.2995 93.6738 11.2995C93.2066 11.2995 93.0252 11.0858 93.0252 10.8373C92.8811 9.80854 92.7022 9.16991 92.3419 8.74499C91.9443 8.24801 91.1516 8.14116 89.7451 8.14116C88.2691 8.14116 87.6553 8.14116 87.4043 8.2828C87.1881 8.42444 87.1509 8.70772 87.1509 9.38361V20.1383C87.1509 21.7709 87.3323 22.4095 87.5833 22.7301Z" fill="#1054CC"/>
<path fill-rule="evenodd" clip-rule="evenodd" d="M105.244 24.9285C99.3698 24.9285 96.127 20.8483 96.127 15.9481C96.127 9.9147 100.488 6.40103 105.749 6.40103C111.481 6.40103 114.796 10.1632 114.796 15.2399C114.796 20.6346 111.228 24.9285 105.244 24.9285ZM105.642 7.78513C101.857 7.78513 99.2977 10.5533 99.2977 15.3467C99.2977 20.493 101.785 23.5097 105.425 23.5097C109.21 23.5097 111.625 20.7763 111.625 15.7368C111.625 10.6254 109.138 7.78513 105.642 7.78513Z" fill="#1054CC"/>
<path fill-rule="evenodd" clip-rule="evenodd" d="M123.157 22.692C123.373 22.9778 123.843 23.1542 124.78 23.1542C124.887 23.1542 125.247 23.1194 125.428 23.1194C125.789 23.1194 125.933 23.4027 125.933 23.8301C125.933 24.1829 125.754 24.5035 125.428 24.5035C125.103 24.5035 123.771 24.3271 122.042 24.3271C120.31 24.3271 118.868 24.5035 118.58 24.5035C118.22 24.5035 118.076 24.1829 118.076 23.7928C118.076 23.4747 118.22 23.1194 118.58 23.1194C118.689 23.1194 118.978 23.1542 119.122 23.1542C119.877 23.1542 120.384 22.9405 120.6 22.6224C120.779 22.3019 120.923 21.8769 120.961 20.4208C121.067 14.954 121.067 12.1162 121.067 10.9433C121.067 9.63129 120.961 8.95539 120.672 8.60253C120.24 8.10555 119.77 8.06827 119.157 8.06827C119.012 8.06827 118.58 8.10555 118.473 8.10555C118.113 8.10555 117.969 7.81978 117.969 7.42965C117.969 6.93267 118.22 6.75624 118.58 6.75624C118.868 6.75624 120.131 6.89788 120.851 6.89788C121.716 6.89788 122.69 6.79103 123.05 6.79103C123.411 6.79103 123.627 6.96746 123.806 7.21595C125.322 9.1343 126.293 10.2699 128.42 12.7175C130.331 14.8844 131.989 16.6934 134.26 19.1783C134.367 19.32 134.476 19.4268 134.583 19.4268C134.692 19.4268 134.727 19.32 134.727 19.2131C134.764 17.9359 134.764 16.8723 134.764 15.6994C134.764 13.9973 134.692 12.8592 134.62 11.085C134.548 9.63129 134.439 8.9206 134.295 8.63732C134.078 8.28198 133.574 8.06827 132.925 8.06827C132.744 8.06827 132.24 8.10555 132.133 8.10555C131.772 8.10555 131.556 7.81978 131.556 7.46444C131.556 7.07431 131.7 6.75624 132.168 6.75624C132.384 6.75624 133.9 6.89788 135.701 6.89788C137.214 6.89788 138.33 6.75624 138.584 6.75624C139.051 6.75624 139.197 7.00473 139.197 7.42965C139.197 7.81978 139.016 8.10555 138.69 8.10555C138.512 8.10555 138.151 8.06827 137.97 8.06827C137.214 8.06827 136.961 8.24719 136.745 8.53047C136.494 8.81375 136.35 9.59401 136.312 11.085C136.278 12.0789 136.278 13.9252 136.278 16.1268C136.278 21.8769 136.457 23.8301 136.457 24.1829C136.457 24.5731 136.24 24.8936 135.736 24.8936C135.269 24.8936 135.053 24.7172 134.943 24.5383C134.223 23.6512 133.574 22.7641 132.925 22.0186C129.573 18.1844 126.293 14.4222 123.157 10.8737C123.05 10.7669 122.978 10.6948 122.797 10.6948C122.69 10.6948 122.653 10.7669 122.653 10.9433C122.653 12.5759 122.618 13.8184 122.618 15.451C122.618 17.1208 122.618 18.6813 122.653 20.4208C122.69 21.9117 122.906 22.4087 123.157 22.692Z" fill="#1054CC"/>
<path fill-rule="evenodd" clip-rule="evenodd" d="M149.867 13.0038C149.867 5.83236 154.516 0.579254 162.841 0.579254C166.265 0.579254 167.995 1.18309 169.436 1.50116C169.978 1.60801 170.338 1.89377 170.373 2.42554C170.445 4.12771 170.842 6.29455 170.842 6.89839C170.842 7.39537 170.482 7.5718 170.012 7.5718C169.58 7.5718 169.329 7.39537 169.257 7.10961C169.004 5.79757 168.571 4.55512 167.923 3.80964C167.13 2.92253 165.905 2.10499 162.227 2.10499C157.183 2.10499 153.217 5.58387 153.217 12.6112C153.217 18.8955 156.641 23.2963 162.587 23.2963C165.579 23.2963 167.093 22.3372 168.067 21.3457C168.825 20.5629 169.329 19.5342 169.796 18.3638C169.906 18.0432 170.122 17.8668 170.554 17.8668C171.021 17.8668 171.275 18.0432 171.275 18.3986C171.275 18.9651 170.733 21.4153 170.229 22.3372C169.94 22.8714 169.473 23.2268 168.969 23.4752C167.381 24.2555 165.689 24.8593 162.371 24.8593C153.975 24.8593 149.867 19.641 149.867 13.0038Z" fill="#1054CC"/>
<path fill-rule="evenodd" clip-rule="evenodd" d="M179.675 22.692C179.926 22.9778 180.251 23.1542 181.116 23.1542C181.223 23.1542 181.655 23.1194 181.872 23.1194C182.232 23.1194 182.376 23.4375 182.376 23.758C182.376 24.0786 182.232 24.5035 181.872 24.5035C181.586 24.5035 179.71 24.3271 178.017 24.3271C176.285 24.3271 174.521 24.5035 174.268 24.5035C173.873 24.5035 173.729 24.2202 173.729 23.7928C173.729 23.4375 173.873 23.1194 174.196 23.1194C174.34 23.1194 174.7 23.1542 174.809 23.1542C175.565 23.1542 176.035 22.9405 176.251 22.6224C176.467 22.3019 176.646 21.6284 176.646 20.2096V11.0502C176.646 9.63129 176.502 8.99266 176.285 8.63732C176.107 8.31677 175.602 8.10555 174.954 8.10555C174.772 8.10555 174.377 8.14034 174.161 8.14034C173.979 8.14034 173.729 7.92663 173.729 7.50171C173.729 7.00473 173.945 6.75624 174.268 6.75624C174.556 6.75624 176.251 6.93267 177.98 6.93267C179.71 6.93267 181.511 6.75624 181.765 6.75624C182.197 6.75624 182.341 7.03952 182.341 7.42965C182.341 7.85457 182.197 8.14034 181.765 8.14034C181.693 8.14034 181.26 8.10555 181.151 8.10555C180.251 8.10555 179.926 8.24719 179.675 8.56526C179.459 8.84854 179.277 9.48965 179.277 11.1222V13.7836C179.277 14.3526 179.459 14.529 181.116 14.529H187.927C189.152 14.529 189.406 14.4222 189.406 13.6071V11.085C189.406 9.66607 189.224 8.95539 189.046 8.63732C188.829 8.31677 188.36 8.10555 187.676 8.10555C187.532 8.10555 187.172 8.14034 186.956 8.14034C186.737 8.14034 186.486 7.92663 186.486 7.50171C186.486 7.00473 186.702 6.75624 187.063 6.75624C187.351 6.75624 189.008 6.93267 190.738 6.93267C192.47 6.93267 194.234 6.75624 194.522 6.75624C194.92 6.75624 195.064 7.03952 195.064 7.42965C195.064 7.85457 194.955 8.14034 194.522 8.14034C194.415 8.14034 194.018 8.10555 193.911 8.10555C192.974 8.10555 192.649 8.24719 192.432 8.56526C192.216 8.84854 192.037 9.55922 192.037 11.085V20.1723C192.037 21.698 192.216 22.446 192.432 22.692C192.686 22.9778 193.009 23.1542 193.874 23.1542C193.983 23.1542 194.415 23.1194 194.632 23.1194C194.955 23.1194 195.099 23.4375 195.099 23.758C195.099 24.0786 194.992 24.5035 194.632 24.5035C194.343 24.5035 192.432 24.3271 190.738 24.3271C189.046 24.3271 187.279 24.5035 186.991 24.5035C186.63 24.5035 186.451 24.2202 186.451 23.7928C186.451 23.4375 186.63 23.1194 186.956 23.1194C187.063 23.1194 187.46 23.1542 187.567 23.1542C188.325 23.1542 188.792 22.9405 189.008 22.6224C189.19 22.3019 189.406 21.6284 189.406 20.2096V16.7655C189.406 16.1268 189.296 15.9852 187.965 15.9852H181.151C179.315 15.9852 179.277 16.1964 179.277 16.7655V20.1723C179.277 21.698 179.494 22.446 179.675 22.692Z" fill="#1054CC"/>
<path fill-rule="evenodd" clip-rule="evenodd" d="M200.433 22.444C200.433 22.941 200.83 23.1199 202.02 23.1199C202.237 23.1199 202.669 23.0826 202.813 23.0826C203.173 23.0826 203.318 23.3336 203.318 23.7237C203.318 24.0791 203.28 24.504 202.813 24.504C202.525 24.504 200.288 24.3624 199.135 24.3624C197.982 24.3624 196.867 24.504 196.541 24.504C196.109 24.504 196.002 24.1487 196.002 23.8306C196.002 23.4032 196.146 23.0826 196.469 23.0826C196.613 23.0826 196.795 23.1199 197.011 23.1199C197.299 23.1199 197.876 23.0131 198.164 22.5857C198.415 22.1955 198.812 21.5917 199.352 20.3517C201.228 16.0901 203.39 11.2644 204.543 8.77948C204.649 8.4962 204.831 7.89236 204.868 7.53702C204.903 7.25374 205.012 7.07483 205.263 6.96798C205.733 6.71948 206.598 6.47099 206.886 6.47099C207.065 6.47099 207.209 6.57784 207.281 6.82634C207.39 7.07483 207.497 7.46496 207.895 8.38935C208.506 9.94987 209.734 12.9318 212.832 20.3517C213.409 21.7706 213.697 22.2676 213.985 22.6229C214.239 22.941 214.706 23.1199 215.176 23.1199C215.32 23.1199 215.464 23.0826 215.608 23.0826C215.896 23.0826 216.112 23.3684 216.112 23.7933C216.112 24.2555 215.931 24.504 215.643 24.504C215.32 24.504 213.553 24.3624 212.363 24.3624C211.21 24.3624 208.434 24.504 208.183 24.504C207.857 24.504 207.679 24.1487 207.679 23.7933C207.679 23.438 207.785 23.0826 208.146 23.0826C208.255 23.0826 208.615 23.1199 208.722 23.1199C210.022 23.1199 210.561 22.8714 210.561 22.3396C210.561 21.9122 210.417 21.4873 209.985 20.3517L209.264 18.6123C209.01 17.9364 208.832 17.76 208.255 17.76H202.776C202.271 17.76 202.055 18.0084 201.876 18.4706L201.118 20.3144C200.651 21.45 200.433 22.0539 200.433 22.444ZM202.885 16.0901C202.885 16.4106 203.101 16.4454 203.857 16.4454H207.425C208.039 16.4454 208.255 16.3759 208.255 16.0901C208.255 15.9485 208.146 15.7 208.074 15.4887L205.877 10.2704C205.805 10.0567 205.733 9.98466 205.624 9.98466C205.551 9.98466 205.479 10.0915 205.373 10.34L203.101 15.4515C203.029 15.6652 202.885 15.9857 202.885 16.0901Z" fill="#1054CC"/>
<path fill-rule="evenodd" clip-rule="evenodd" d="M229.305 19.7102C229.305 22.8362 226.78 24.9285 222.744 24.9285C220.761 24.9285 218.851 24.3968 218.058 23.8998C217.77 23.7582 217.481 23.5097 217.447 23.1543C217.337 21.7702 217.121 20.3141 217.121 19.996C217.121 19.6406 217.375 19.3922 217.879 19.3922C218.311 19.3922 218.49 19.6059 218.565 19.9239C218.709 20.7763 218.923 21.5217 219.43 22.1951C219.934 22.871 221.447 23.5444 222.851 23.5444C225.555 23.5444 226.961 22.4088 226.961 20.4557C226.961 19.1089 226.025 18.3261 224.295 17.4042L221.664 16.0549C219.104 14.7429 217.916 13.3588 217.916 11.1224C217.916 8.17526 220.473 6.40103 224.114 6.40103C225.771 6.40103 226.927 6.64952 227.826 6.89801C228.44 7.10923 228.8 7.42979 228.835 7.78513C228.907 8.5306 229.088 10.695 229.088 10.8366C229.088 11.1572 228.763 11.3336 228.44 11.3336C228.005 11.3336 227.791 11.1224 227.754 10.8739C227.645 10.198 227.356 9.27608 226.961 8.77909C226.492 8.14047 225.555 7.75034 224.079 7.75034C221.482 7.75034 220.257 8.88594 220.257 10.4465C220.257 11.6541 220.871 12.5065 222.779 13.4632L225.304 14.7777C227.97 16.127 229.305 17.3322 229.305 19.7102Z" fill="#1054CC"/>
<path fill-rule="evenodd" clip-rule="evenodd" d="M237.811 24.3618C236.082 24.3618 233.125 24.5035 232.801 24.5035C232.476 24.5035 232.26 24.3271 232.26 23.8301C232.26 23.3306 232.476 23.1194 232.729 23.1194C232.874 23.1194 233.269 23.1542 233.413 23.1542C234.171 23.1542 234.603 22.9405 234.782 22.6224C234.963 22.3391 235.18 21.698 235.18 20.3139V11.0154C235.18 9.63128 235.035 8.95539 234.819 8.63732C234.638 8.31677 234.171 8.10555 233.45 8.10555C233.306 8.10555 232.908 8.14034 232.764 8.14034C232.404 8.14034 232.26 7.89185 232.26 7.46444C232.26 7.07431 232.404 6.75624 232.836 6.75624C233.125 6.75624 235.935 6.89788 237.739 6.89788C241.847 6.89788 243.469 6.75624 245.38 6.75624C245.668 6.75624 245.885 6.89788 245.885 7.3228C245.885 8.42362 245.957 10.588 245.957 10.7669C245.957 11.0154 245.74 11.1918 245.415 11.1918C244.983 11.1918 244.732 11.0154 244.694 10.7669C244.657 9.91456 244.443 9.24115 244.008 8.77896C243.504 8.28198 242.711 8.24719 241.163 8.24719C240.371 8.24719 238.999 8.24719 238.315 8.31677C237.955 8.35155 237.811 8.53047 237.811 9.02745V13.9252C237.811 14.4943 238.134 14.5638 238.855 14.5638C240.08 14.5638 240.947 14.4222 241.342 14.3153C241.812 14.1041 242.172 13.7488 242.316 12.4691C242.351 12.223 242.567 12.0441 242.965 12.0441C243.253 12.0441 243.541 12.1858 243.541 12.4691C243.541 12.7175 243.36 14.2458 243.36 15.3814C243.36 16.3033 243.469 17.4041 243.469 17.9011C243.469 18.08 243.288 18.326 242.821 18.326C242.46 18.326 242.316 18.1496 242.279 17.9359C242.172 16.6586 241.775 16.2685 241.451 16.0896C241.126 15.9131 239.936 15.8411 238.748 15.8411C237.955 15.8411 237.811 15.9852 237.811 16.4822V20.7761C237.811 21.4147 237.918 22.0186 238.062 22.3019C238.422 22.9405 239.575 23.0473 241.74 23.0473C243.253 23.0473 244.153 22.9405 244.732 22.5503C245.38 22.0882 245.812 21.3452 246.136 20.2791C246.208 20.0306 246.424 19.8542 246.749 19.8542C247.11 19.8542 247.433 19.9586 247.433 20.3139C247.433 20.6345 246.893 22.8336 246.64 23.686C246.461 24.1829 246.136 24.5035 245.668 24.5035C242.965 24.5035 241.414 24.3618 237.811 24.3618Z" fill="#1054CC"/>
<path fill-rule="evenodd" clip-rule="evenodd" d="M18.8164 0.114578H139.794V1.60553H18.8164V0.114578Z" fill="#1054CC"/>
<path fill-rule="evenodd" clip-rule="evenodd" d="M175.312 0.114578H247.852V1.60553H175.312V0.114578Z" fill="#1054CC"/>
<path fill-rule="evenodd" clip-rule="evenodd" d="M247.961 31.8076H1.17711C0.765365 31.8076 0.431641 31.4739 0.431641 31.0621C0.431641 30.6504 0.765365 30.3167 1.17711 30.3167H247.961C248.373 30.3167 248.707 30.6504 248.707 31.0621C248.707 31.4739 248.373 31.8076 247.961 31.8076Z" fill="#1054CC"/>
</svg>
